<?xml version="1.0" encoding="UTF-8" standalone="no"?>
<svg
   viewBox="0 0 1122 1402"
   role="img"
   aria-labelledby="title desc"
   version="1.1"
   id="svg25"
   sodipodi:docname="capy_logo_multiplatform.svg"
   inkscape:version="1.3.2 (091e20e, 2023-11-25)"
   xmlns:inkscape="http://www.inkscape.org/namespaces/inkscape"
   xmlns:sodipodi="http://sodipodi.sourceforge.net/DTD/sodipodi-0.dtd"
   xmlns:xlink="http://www.w3.org/1999/xlink"
   xmlns="http://www.w3.org/2000/svg"
   xmlns:svg="http://www.w3.org/2000/svg"
   xmlns:rdf="http://www.w3.org/1999/02/22-rdf-syntax-ns#"
   xmlns:cc="http://creativecommons.org/ns#"
   xmlns:dc="http://purl.org/dc/elements/1.1/">
  <sodipodi:namedview
     id="namedview25"
     pagecolor="#ffffff"
     bordercolor="#000000"
     borderopacity="0.25"
     inkscape:showpageshadow="2"
     inkscape:pageopacity="0.0"
     inkscape:pagecheckerboard="0"
     inkscape:deskcolor="#d1d1d1"
     inkscape:zoom="0.82024387"
     inkscape:cx="344.40977"
     inkscape:cy="692.47699"
     inkscape:window-width="1920"
     inkscape:window-height="1018"
     inkscape:window-x="1920"
     inkscape:window-y="0"
     inkscape:window-maximized="1"
     inkscape:current-layer="capy-logo" />
  <title
     id="title">capy logo</title>
  <desc
     id="desc">A calm capybara silhouette sitting in a sandbox-shaped context layer, with a capy wordmark.</desc>
  <defs
     id="defs8">
    <linearGradient
       id="navyGrad"
       x1="0"
       x2="1"
       y1="0"
       y2="1">
      <stop
         offset="0"
         stop-color="#203B50"
         id="stop1" />
      <stop
         offset="1"
         stop-color="#0B1D2E"
         id="stop2" />
    </linearGradient>
    <linearGradient
       id="tealGrad"
       x1="0"
       x2="1"
       y1="0"
       y2="1">
      <stop
         offset="0"
         stop-color="#1AC7C2"
         id="stop3" />
      <stop
         offset="1"
         stop-color="#0EA3AE"
         id="stop4" />
    </linearGradient>
    <linearGradient
       id="mintGrad"
       x1="0"
       x2="1"
       y1="0"
       y2="1">
      <stop
         offset="0"
         stop-color="#9BE3DF"
         id="stop5" />
      <stop
         offset="1"
         stop-color="#76CACA"
         id="stop6" />
    </linearGradient>
    <linearGradient
       id="sandGrad"
       x1="152.32852"
       x2="555.81027"
       y1="706.18425"
       y2="1109.666"
       gradientTransform="matrix(1.5515202,0,0,0.616976,-0.54682566,11.950892)"
       gradientUnits="userSpaceOnUse">
      <stop
         offset="0"
         stop-color="#F9E5BD"
         id="stop7" />
      <stop
         offset="1"
         stop-color="#EDC988"
         id="stop8" />
    </linearGradient>
    <!-- <filter id="softShadow" x="-20%" y="-20%" width="140%" height="140%"> -->
    <!--   <feDropShadow dx="0" dy="18" stdDeviation="22" flood-color="#0B1D2E" flood-opacity="0.10"/> -->
    <!-- </filter> -->
    <linearGradient
       inkscape:collect="always"
       xlink:href="#navyGrad"
       id="linearGradient7"
       x1="330.26404"
       y1="307.43549"
       x2="391.16349"
       y2="368.33494"
       gradientTransform="scale(1.4942594,0.66922784)"
       gradientUnits="userSpaceOnUse" />
    <linearGradient
       inkscape:collect="always"
       xlink:href="#navyGrad"
       id="linearGradient8"
       x1="406.5"
       y1="196.5"
       x2="505.5"
       y2="295.5"
       gradientUnits="userSpaceOnUse" />
    <linearGradient
       inkscape:collect="always"
       xlink:href="#navyGrad"
       id="linearGradient9"
       x1="355.3613"
       y1="234.33296"
       x2="833.11427"
       y2="712.08593"
       gradientTransform="scale(1.0158677,0.98438015)"
       gradientUnits="userSpaceOnUse" />
  </defs>
  <!-- <g id="capy-logo" filter="url(#softShadow)"> -->
  <g
     id="capy-logo">
    <!-- lower context layer -->
    <!-- middle context layer -->
    <!-- sandbox body -->
    <!-- top dark rim -->
    <!-- sand inset -->
    <path
       d="m 240.67705,525.56116 126.95994,-72.53275 c 11.06831,-6.53447 22.46215,-6.53447 34.18153,0 L 537.568,528.50168 c 13.6726,7.84138 27.34521,7.84138 41.01782,0 l 135.74946,-75.47327 c 11.71939,-6.53447 23.11323,-6.53447 34.18154,0 l 139.32407,68.64684 c 9.76616,5.88104 -11.18438,14.39974 -20.95054,20.28078 l -285.37469,147.2939 c -15.62584,9.14827 -31.25168,9.14827 -46.87751,0 L 240.67705,531.4422 c -5.85969,-2.61379 -5.85969,-4.57414 0,-5.88104 z"
       fill="url(#sandGrad)"
       id="path14"
       style="fill:url(#sandGrad);stroke:#000000;stroke-width:0.978396;stroke-opacity:1"
       sodipodi:nodetypes="ccccccccccccc" />
    <path
       style="fill:#112537;fill-opacity:1"
       d="m 551.39862,837.1785 c -13.41686,-2.45183 -13.99612,-2.73525 -196.83086,-96.30624 -33.275,-17.02945 -74.225,-37.95645 -91,-46.50445 -16.775,-8.548 -33.51219,-17.51472 -37.19376,-19.92606 -7.4088,-4.85258 -12.98024,-11.62587 -15.91402,-19.34695 -1.76473,-4.64442 -1.89222,-8.35111 -1.89222,-55.01683 v -50.03689 l 5.11494,5.11495 c 4.08406,4.08405 8.36689,6.68859 21.25,12.92288 37.10985,17.9579 101.97504,49.73478 127.13506,62.28234 14.85,7.40584 58.64539,29.0714 97.32308,48.14568 48.32775,23.83329 73.03701,35.48539 79,37.25387 6.24323,1.85159 11.97245,2.72436 20.42658,3.1117 13.23437,0.60635 23.21006,-0.6512 33.83655,-4.2655 3.81678,-1.29817 27.74629,-12.86972 53.17669,-25.71455 43.99612,-22.22233 141.45239,-70.59333 220.8858,-109.63346 32.8108,-16.12593 37.2389,-18.5884 42.2844,-23.51443 l 5.6358,-5.50224 -0.2845,51.197 -0.2844,51.197 -2.9146,5.75479 c -1.6117,3.18225 -5.4114,8.12278 -8.5,11.05201 -5.4924,5.20906 -8.1049,6.71707 -44.0854,25.44768 -7.425,3.86528 -23.625,12.31487 -36,18.77686 -12.375,6.46199 -33.075,17.24871 -46,23.97048 -12.925,6.72178 -34.075,17.74572 -47,24.49764 -37.04938,19.35433 -100.7823,52.39682 -120.5,62.47354 -10.74814,5.49282 -20.82017,9.91115 -25,10.96682 -7.94645,2.00699 -25.69203,2.87737 -32.66914,1.60236 z"
       id="path10-3" />
    <path
       style="fill:#12aeb4;fill-opacity:1"
       d="m 543.56776,913.35228 c -6.44724,-1.5474 -35.41077,-15.8155 -109,-53.69602 -43.99894,-22.64871 -72.91161,-37.42834 -113.5,-58.01913 -93.4649,-47.41542 -95.30837,-48.40103 -101.09491,-54.05051 -3.19472,-3.11905 -6.59144,-7.74351 -8.18342,-11.14133 l -2.72167,-5.80897 -0.29149,-30.25 c -0.16032,-16.6375 -0.0877,-30.25 0.16127,-30.25 0.24903,0 2.87368,2.3625 5.83256,5.25 5.69521,5.55781 2.61731,3.90361 102.79766,55.24821 65.41879,33.52855 86.88795,44.55568 128,65.7442 22.275,11.48019 51.75,26.49884 65.5,33.37477 22.16055,11.08178 26.13578,12.73389 35,14.54603 8.09977,1.65585 12.28028,1.94157 22,1.50356 7.67784,-0.34599 14.70135,-1.30168 19.5,-2.65338 8.37195,-2.35824 40.77495,-18.82466 155.5,-79.02133 16.5,-8.65761 47.55,-24.85283 69,-35.98937 91.0098,-47.25101 90.5493,-46.998 96.7908,-53.18447 l 5.7907,-5.73976 -0.2907,30.71077 -0.2908,30.71077 -2.7409,5.85094 c -1.7242,3.68062 -4.9315,7.94638 -8.6467,11.5 -5.1106,4.88851 -10.2616,7.85696 -38.2591,22.04845 -59.55437,30.18718 -132.56127,67.74364 -219.58589,112.96017 -60.91493,31.6503 -62.33442,32.2039 -82.12928,32.0284 -7.61691,-0.067 -15.22063,-0.7318 -19.13813,-1.672 z"
       id="path9" />
    <path
       style="fill:#80d1d0;fill-opacity:1"
       d="m 546.40224,980.56978 c -4.21604,-0.7629 -10.53963,-2.4689 -14.05242,-3.7911 -3.51279,-1.3222 -21.2133,-10.0464 -39.33448,-19.387 -18.12117,-9.3407 -48.47258,-24.9787 -67.44758,-34.751 -35.48802,-18.2768 -103.76946,-53.6699 -121.5,-62.9785 -5.5,-2.88753 -25.60323,-13.21713 -44.67385,-22.95466 -29.43135,-15.02777 -35.44026,-18.47102 -39.74284,-22.77361 -2.78795,-2.78794 -6.30972,-7.59543 -7.82615,-10.68329 -2.74472,-5.58897 -2.75864,-5.72373 -3.08527,-29.8643 -0.18046,-13.3375 -0.16929,-24.25 0.0248,-24.25 0.19412,0 2.9223,2.42969 6.06262,5.3993 3.54838,3.3555 9.40623,7.28893 15.47517,10.3913 5.37103,2.7456 52.0655,26.58614 103.7655,52.97898 51.7,26.39284 110.2,56.30658 130,66.47488 77.89096,40.0012 75.62988,39.1014 98.5,39.1983 10.14132,0.043 15.36593,-0.4171 21,-1.8493 4.125,-1.0486 9.3,-2.6771 11.5,-3.6189 2.2,-0.9418 22,-11.0481 44,-22.4584 63.28164,-32.8211 168.03908,-86.76338 215.71232,-111.07581 24.0418,-12.26084 45.6845,-23.64931 48.0949,-25.30771 2.4104,-1.6584 5.7886,-4.61668 7.5071,-6.57396 1.7185,-1.95727 3.3923,-3.55868 3.7195,-3.55868 0.3272,0 0.4535,10.9125 0.2806,24.25 l -0.3144,24.25 -3.1385,6 c -5.8521,11.18774 -10.2642,14.27138 -47.8615,33.45071 -18.7,9.53935 -51.55,26.44625 -73,37.57085 -93.09311,48.281 -148.58686,77.0704 -170.5,88.4532 -12.925,6.7139 -26.71458,13.2862 -30.64351,14.6051 -13.30537,4.4666 -28.11522,5.4604 -42.52201,2.8536 z"
       id="path8-6" />
    <path
       style="fill:#122639;fill-opacity:1"
       d="m 547.56293,709.12661 c -9.168,-2.02165 -15.48559,-4.67605 -39.69615,-16.6787 -32.79617,-16.25906 -205.64086,-101.32407 -231.80385,-114.08158 -12.375,-6.03426 -28.96023,-14.0999 -36.85607,-17.92365 -16.20176,-7.84609 -22.99712,-13.2593 -26.78121,-21.33399 -1.86308,-3.97554 -2.34518,-6.69853 -2.35295,-13.28984 -0.0112,-9.51889 1.65302,-13.80629 7.71055,-19.86381 3.58348,-3.58348 14.86857,-9.3508 84.77968,-43.32723 9.9,-4.81135 33.975,-16.5139 53.5,-26.00568 36.81467,-17.89689 44.07157,-21.2752 44.58915,-20.75762 0.56107,0.56106 -12.78417,40.22481 -13.94585,41.44884 -1.14221,1.20351 -116.61312,57.78489 -132.6433,64.99594 -3.025,1.36077 -6.2875,3.17956 -7.25,4.04175 -0.9625,0.8622 -1.75,2.86262 -1.75,4.44539 0,2.64962 0.73332,3.22242 9.25,7.22516 13.7882,6.48029 38.24274,18.37588 76.25,37.0908 18.7,9.20795 45.25,22.25265 59,28.98822 13.75,6.73558 54.25,26.74847 90,44.4731 65.84795,32.647 73.7648,36.04616 83.90996,36.02743 12.1937,-0.0225 14.01325,-0.78525 81.51427,-34.16958 36.54261,-18.07307 64.72602,-32.57976 64.38079,-33.13836 -0.36127,-0.58454 -0.1005,-0.67614 0.63346,-0.22253 1.10844,0.68505 70.86257,-33.09386 147.56152,-71.45768 l 23,-11.5043 v -3.5 c 0,-3.47078 -0.10019,-3.55031 -12,-9.52597 -6.6,-3.31429 -20.325,-10.02564 -30.5,-14.9141 -59.18151,-28.43312 -91.47983,-47.65937 -92.81503,-48.09787 -0.87729,-0.28811 2.20325,-2.40328 7.5,-5.14968 4.94383,-2.56341 9.49245,-5.49562 13.98878,-8.62466 2.60452,-1.81251 4.98642,-3.9258 7.5,-5.86246 0.82889,-0.63865 2.5,-1.89855 2.5,-1.89855 l 71.82625,38.19766 c 51.58032,27.43074 56.28044,27.13063 60.7388,31.91037 3.37715,3.62059 5.20854,6.69623 6.37355,10.70374 2.02365,6.9611 1.34051,15.24792 -1.81225,21.98359 -1.23003,2.62786 -4.50074,6.9586 -7.26826,9.62386 -3.9938,3.84624 -9.7766,7.17765 -28.03184,16.14885 -12.65,6.21661 -42.8,21.07374 -67,33.01585 -24.2,11.9421 -54.8,27.00842 -68,33.4807 -13.2,6.47229 -52.22938,25.75139 -86.73196,42.84245 -34.50258,17.09107 -64.73993,31.75639 -67.19412,32.5896 -6.92847,2.35228 -16.18816,3.56822 -26.57392,3.48957 -5.225,-0.0396 -12.2,-0.66733 -15.5,-1.39503 z"
       id="path11"
       sodipodi:nodetypes="ssssssssssssssssssssssscsssssaacssssssssssss" />
    <circle
       cx="326"
       cy="531"
       r="9"
       fill="#E7C58E"
       opacity="0.55"
       id="circle15" />
    <circle
       cx="432"
       cy="594"
       r="8"
       fill="#E7C58E"
       opacity="0.55"
       id="circle16" />
    <circle
       cx="681"
       cy="610"
       r="8"
       fill="#E7C58E"
       opacity="0.50"
       id="circle17" />
    <circle
       cx="792"
       cy="531"
       r="9"
       fill="#E7C58E"
       opacity="0.45"
       id="circle18" />
    <circle
       cx="569"
       cy="651"
       r="9"
       fill="#e7c58e"
       opacity="0.45"
       id="circle18-6" />
    <circle
       cx="646.97119"
       cy="609.6817"
       r="9"
       fill="#e7c58e"
       opacity="0.45"
       id="circle18-0" />
    <circle
       cx="648.20648"
       cy="640.16534"
       r="9"
       fill="#e7c58e"
       opacity="0.45"
       id="circle18-62" />
    <circle
       cx="423.34637"
       cy="572.27405"
       r="9"
       fill="#e7c58e"
       opacity="0.45"
       id="circle18-61" />
    <!-- capybara silhouette, using the calmer first-shape profile -->
    <!-- small protocol / MCP hint on the sandbox wall -->
    <g
       id="protocol-mark"
       fill="none"
       stroke="#16b8b8"
       stroke-width="10"
       stroke-linecap="round"
       stroke-linejoin="round"
       transform="rotate(84.191473,508.53813,851.23386)">
      <g
         transform="matrix(0.26153206,0,0,0.26153206,519.46733,572.31394)"
         id="g3">
        <text
           x="-5.8588409"
           y="-140.31885"
           text-anchor="middle"
           font-family="Arial, Helvetica, sans-serif"
           font-weight="700"
           font-size="200px"
           letter-spacing="3"
           fill="#e7c58e"
           id="text3"
           inkscape:label="text3"
           style="font-style:normal;font-variant:normal;font-weight:normal;font-stretch:normal;font-size:200px;font-family:Arial, Helvetica, sans-serif;-inkscape-font-specification:'Arial, Helvetica, sans-serif, Normal';font-variant-ligatures:normal;font-variant-caps:normal;font-variant-numeric:normal;font-variant-east-asian:normal;letter-spacing:3;text-anchor:middle;fill:#e7c58e;stroke-width:3.11625;stroke-dasharray:none"
           transform="rotate(-111.2505)"><tspan
             sodipodi:role="line"
             id="tspan5">˚··˳∴≈҉✵≈˳··˚</tspan></text>
        <circle
           cx="-35"
           cy="0"
           r="265"
           fill="none"
           stroke="#ffffff"
           stroke-width="23"
           stroke-dasharray="715, 150"
           stroke-dashoffset="100"
           id="circle1"
           style="display:none" />
        <circle
           cx="-35"
           cy="0"
           r="212"
           fill="none"
           stroke="#ffffff"
           stroke-width="23"
           stroke-dasharray="500, 180, 200, 150"
           stroke-dashoffset="230"
           id="circle2"
           style="display:none" />
        <circle
           cx="-35"
           cy="0"
           r="159"
           fill="none"
           stroke="#ffffff"
           stroke-width="26"
           stroke-dasharray="415, 115, 100, 150"
           stroke-dashoffset="66"
           id="circle3"
           style="display:none" />
      </g>
    </g>
    <!-- wordmark converted to outlines -->
    <g
       id="capybara-2"
       transform="matrix(0.90273384,0,0,0.90273384,46.87892,4.8697989)">
      <path
         d="m 499,236 c 9,-32 64,-34 80,0 l -45,5 z"
         fill="url(#navyGrad)"
         stroke="#ffffff"
         stroke-width="11"
         stroke-linejoin="round"
         id="path18-9"
         style="fill:url(#linearGradient7)" />
      <circle
         cx="456"
         cy="246"
         r="44"
         fill="url(#navyGrad)"
         stroke="#ffffff"
         stroke-width="11"
         id="circle19-1"
         style="fill:url(#linearGradient8)" />
      <circle
         cx="458"
         cy="251"
         r="28"
         fill="#2b465a"
         opacity="0.65"
         id="circle20-2" />
      <path
         d="m 368,621 c 3,-54 12,-120 25,-183 19,-96 46,-159 103,-186 53,-26 178,-15 256,21 60,28 91,71 87,128 -3,56 -38,96 -95,107 l -40,3 c 35,37 59,94 53,152 -24,0 -47,-5 -69,-16 -40,49 -115,63 -176,26 -37,-23 -59,-52 -98,-60 -18,-3 -33,1 -46,8 z"
         fill="url(#navyGrad)"
         stroke="#ffffff"
         stroke-width="14"
         stroke-linejoin="round"
         id="path20-7"
         style="fill:url(#linearGradient9);stroke-width:8.59186;stroke-dasharray:none" />
      <path
         d="m 613.31789,487 c 69.70756,23.35441 118.19977,72.86576 136.38435,140.12645 -20.20509,21.48606 -37.37941,27.09112 -58.59476,10.27594 C 667.87163,568.27335 631.50247,524.36705 582,498.21012 Z"
         fill="#0b1d2e"
         opacity="0.48"
         id="path21-0"
         style="stroke-width:0.971471" />
      <line
         x1="562"
         y1="318"
         x2="609"
         y2="318"
         stroke="#0b1d2e"
         stroke-width="13"
         stroke-linecap="round"
         id="line21-9" />
      <path
         d="m 749,340 c 34,1 54,20 54,51 v 36 c 0,36 -23,60 -59,63"
         fill="none"
         stroke="#0b1d2e"
         stroke-width="14"
         stroke-linecap="round"
         stroke-linejoin="round"
         id="path22-3" />
    </g>
    <text
       x="335.47949"
       y="961.56787"
       text-anchor="middle"
       font-family="Arial, Helvetica, sans-serif"
       font-weight="700"
       font-size="200px"
       letter-spacing="3"
       fill="#e7c58e"
       id="text1"
       inkscape:label="text3"
       style="font-style:normal;font-variant:normal;font-weight:normal;font-stretch:normal;font-size:52.3064px;font-family:'Fira Sans';-inkscape-font-specification:'Fira Sans, Normal';font-variant-ligatures:normal;font-variant-caps:normal;font-variant-numeric:normal;font-variant-east-asian:normal;letter-spacing:0.784596;text-anchor:middle;fill:#e7c58e;stroke-width:0.814999;stroke-dasharray:none"
       transform="rotate(-24.85823)"><tspan
         sodipodi:role="line"
         id="tspan3"
         x="335.8718"
         y="961.56787">m̰̂̃ṳ̈̋̊s̥̈̃ṫ̰̋̂ f̤̃̊l̥̋̂ö̰̃̊ẅ̤̋✧</tspan></text>
    <text
       x="643.62964"
       y="452.07666"
       text-anchor="middle"
       font-family="Arial, Helvetica, sans-serif"
       font-weight="700"
       font-size="200px"
       letter-spacing="3"
       fill="#e7c58e"
       id="text6"
       inkscape:label="text3"
       style="font-style:normal;font-variant:normal;font-weight:normal;font-stretch:normal;font-size:52.3064px;font-family:'Fira Sans';-inkscape-font-specification:'Fira Sans, Normal';font-variant-ligatures:normal;font-variant-caps:normal;font-variant-numeric:normal;font-variant-east-asian:normal;letter-spacing:0.784596;text-anchor:middle;fill:#e7c58e;stroke-width:0.814999;stroke-dasharray:none"
       transform="rotate(26.855904)"><tspan
         sodipodi:role="line"
         id="tspan4">✧t̰̋̃ĥ̤̊ẹ̃̆ s̶̰̋̃p̶̤̂̊ï̶̥̈̃c̶̰̋̊ë̶̤̂̃ c̥̋̃ö̰̂̊ḋ̤̈̃ë̥̋̊</tspan></text>
    <circle
       cx="546.56854"
       cy="657.38434"
       r="9"
       fill="#e7c58e"
       opacity="0.45"
       id="circle18-8" />
    <circle
       cx="759.37543"
       cy="563.58398"
       r="9"
       fill="#e7c58e"
       opacity="0.45"
       id="circle18-7" />
    <circle
       cx="367.43253"
       cy="573.92719"
       r="9"
       fill="#e7c58e"
       opacity="0.45"
       id="circle18-9" />
    <circle
       cx="479.51663"
       cy="628.7597"
       r="9"
       fill="#e7c58e"
       opacity="0.45"
       id="circle18-2" />
    <circle
       cx="521.11108"
       cy="628.25745"
       r="9"
       fill="#e7c58e"
       opacity="0.45"
       id="circle18-02" />
    <circle
       cx="490"
       cy="606"
       r="9"
       fill="#e7c58e"
       opacity="0.45"
       id="circle18-3" />
    <circle
       cx="387"
       cy="547"
       r="9"
       fill="#e7c58e"
       opacity="0.45"
       id="circle18-75" />
    <circle
       cx="303"
       cy="539"
       r="9"
       fill="#e7c58e"
       opacity="0.45"
       id="circle18-92" />
    <circle
       cx="682"
       cy="556"
       r="9"
       fill="#e7c58e"
       opacity="0.45"
       id="circle18-28" />
    <circle
       cx="739"
       cy="498"
       r="9"
       fill="#e7c58e"
       opacity="0.45"
       id="circle18-97" />
    <circle
       cx="415"
       cy="529"
       r="9"
       fill="#e7c58e"
       opacity="0.45"
       id="circle18-36" />
    <circle
       cx="503"
       cy="560"
       r="9"
       fill="#e7c58e"
       opacity="0.45"
       id="circle18-1" />
    <circle
       cx="602"
       cy="547"
       r="9"
       fill="#e7c58e"
       opacity="0.45"
       id="circle18-29" />
  </g>
  <metadata
     id="metadata1">
    <rdf:RDF>
      <cc:Work
         rdf:about="">
        <dc:title>capy logo</dc:title>
      </cc:Work>
    </rdf:RDF>
  </metadata>
</svg>
